<?xml version="1.0" encoding="UTF-8"?>
<svg version="1.1" xmlns="http://www.w3.org/2000/svg" width="1260" height="363">
<path d="M0 0 C0.78872498 -0.00175232 1.57744995 -0.00350464 2.39007568 -0.00531006 C5.0041319 -0.00972106 7.61812079 -0.0067935 10.23217773 -0.00341797 C12.0429638 -0.00409116 13.85374977 -0.00506131 15.66453552 -0.00631714 C19.46174987 -0.00779304 23.25894072 -0.00564276 27.05615234 -0.00097656 C31.93462014 0.00472472 36.81303297 0.00143851 41.69149876 -0.00454903 C45.43084633 -0.00815408 49.17018077 -0.00701638 52.90952873 -0.00442123 C54.70895329 -0.00375202 56.50837902 -0.00458019 58.3078022 -0.00690079 C60.81721302 -0.00942685 63.32653345 -0.00558759 65.8359375 0 C66.96194618 -0.00303635 66.96194618 -0.00303635 68.11070251 -0.00613403 C73.23900801 0.01513106 73.23900801 0.01513106 74.35327148 1.12939453 C73.72816168 9.88093185 71.94471985 18.51142495 70.35327148 27.12939453 C70.09876221 28.51263916 70.09876221 28.51263916 69.83911133 29.92382812 C69.30671931 32.80572089 68.76865583 35.68649046 68.22827148 38.56689453 C68.0577124 39.4850293 67.88715332 40.40316406 67.71142578 41.34912109 C67.46839722 42.63061035 67.46839722 42.63061035 67.22045898 43.93798828 C67.07721191 44.69909912 66.93396484 45.46020996 66.78637695 46.24438477 C66.35327148 48.12939453 66.35327148 48.12939453 65.35327148 50.12939453 C65.19672687 51.58467969 65.077516 53.04408236 64.97827148 54.50439453 C64.52523921 59.48774954 63.4627766 64.14993301 62.16967773 68.97705078 C60.32943418 76.08268019 58.97741808 83.18208333 57.91577148 90.44189453 C56.93040502 96.95929904 55.69402832 103.29301629 53.97827148 109.66455078 C53.41433743 111.88856572 53.02098777 114.04376961 52.72827148 116.31689453 C52.35327148 119.12939453 52.35327148 119.12939453 51.35327148 120.12939453 C51.02327148 122.76939453 50.69327148 125.40939453 50.35327148 128.12939453 C58.60327148 128.45939453 66.85327148 128.78939453 75.35327148 129.12939453 C74.25036208 138.03750899 72.92372685 146.74687707 71.06811523 155.53564453 C70.20371559 159.88126022 69.60516025 164.24300857 69.07592773 168.64111328 C68.15736426 171.80395075 66.94017983 173.11938964 64.35327148 175.12939453 C62.26733398 175.73876953 62.26733398 175.73876953 59.97827148 175.87939453 C59.11717773 175.93482422 58.25608398 175.99025391 57.36889648 176.04736328 C51.69583119 176.20168241 46.02762161 176.2029812 40.35327148 176.12939453 C40.27979492 177.43263672 40.27979492 177.43263672 40.20483398 178.76220703 C40.09268555 180.49083984 40.09268555 180.49083984 39.97827148 182.25439453 C39.87385742 183.95982422 39.87385742 183.95982422 39.76733398 185.69970703 C39.35513786 189.11393532 38.44238944 191.87823572 37.35327148 195.12939453 C36.77051193 198.1352827 36.34752597 201.16111166 35.91577148 204.19189453 C32.67337053 225.80929549 32.67337053 225.80929549 30.35327148 228.12939453 C28.4202065 228.2233551 26.4836831 228.24682971 24.54833984 228.24291992 C23.30712875 228.24284439 22.06591766 228.24276886 20.78709412 228.24269104 C19.42243409 228.23758364 18.05777446 228.23236763 16.69311523 228.22705078 C15.30448965 228.22518653 13.91586341 228.22376266 12.52723694 228.22276306 C8.86606034 228.2189384 5.20492318 228.20910856 1.54376221 228.19805908 C-2.18965115 228.18784385 -5.92307085 228.1832652 -9.65649414 228.17822266 C-16.98659028 228.16748624 -24.31665388 228.15041045 -31.64672852 228.12939453 C-32.67832478 225.03460575 -32.62155713 223.6030806 -32.20922852 220.44189453 C-32.10739258 219.63365234 -32.00555664 218.82541016 -31.90063477 217.99267578 C-31.77495117 217.07035156 -31.77495117 217.07035156 -31.64672852 216.12939453 C-30.98672852 216.12939453 -30.32672852 216.12939453 -29.64672852 216.12939453 C-29.95223633 215.11425781 -29.95223633 215.11425781 -30.26391602 214.07861328 C-30.75872817 210.26654007 -29.87559239 207.61509674 -28.77172852 203.94189453 C-27.23014263 198.62097886 -26.14730052 193.52486558 -25.82250977 187.98486328 C-25.64672852 186.12939453 -25.64672852 186.12939453 -24.64672852 184.12939453 C-24.48003534 180.58767475 -24.48003534 180.58767475 -24.64672852 177.12939453 C-28.48787012 173.28825292 -40.07324014 175.04076672 -45.40698242 175.03173828 C-47.92645834 175.03405371 -50.44581157 175.04211482 -52.96525955 175.05422974 C-55.67162102 175.06712481 -58.37793289 175.07354068 -61.08432007 175.07836914 C-66.81347884 175.08971547 -72.54259574 175.10900787 -78.27172852 175.12939453 C-84.94823266 175.15299427 -91.62471455 175.17333908 -98.30125046 175.18533325 C-100.97199317 175.19183055 -103.64266568 175.20432854 -106.31338501 175.21704102 C-107.93572935 175.2206702 -109.55807435 175.22402234 -111.18041992 175.22705078 C-111.92630371 175.2322171 -112.6721875 175.23738342 -113.44067383 175.2427063 C-115.17643638 175.24288746 -116.91208553 175.19172727 -118.64672852 175.12939453 C-119.64672852 174.12939453 -119.64672852 174.12939453 -119.70141602 172.06689453 C-118.95665774 159.89171578 -116.17280891 148.03607099 -113.64672852 136.12939453 C-112.98672852 136.12939453 -112.32672852 136.12939453 -111.64672852 136.12939453 C-111.15172852 134.14939453 -111.15172852 134.14939453 -110.64672852 132.12939453 C-109.98672852 132.12939453 -109.32672852 132.12939453 -108.64672852 132.12939453 C-108.64672852 131.13939453 -108.64672852 130.14939453 -108.64672852 129.12939453 C-107.98672852 129.12939453 -107.32672852 129.12939453 -106.64672852 129.12939453 C-106.37860352 128.57251953 -106.11047852 128.01564453 -105.83422852 127.44189453 C-103.30684888 122.52015524 -100.61555868 119.00592632 -96.64672852 115.12939453 C-92.22605786 110.49224774 -89.30771074 105.96308633 -86.64672852 100.12939453 C-85.98672852 100.12939453 -85.32672852 100.12939453 -84.64672852 100.12939453 C-83.62806622 98.47406831 -82.62862039 96.80679315 -81.64672852 95.12939453 C-80.98672852 94.79939453 -80.32672852 94.46939453 -79.64672852 94.12939453 C-79.64672852 93.46939453 -79.64672852 92.80939453 -79.64672852 92.12939453 C-78.98672852 92.12939453 -78.32672852 92.12939453 -77.64672852 92.12939453 C-77.64672852 91.13939453 -77.64672852 90.14939453 -77.64672852 89.12939453 C-76.00184558 87.4412252 -74.33335309 85.77586138 -72.64672852 84.12939453 C-71.96404714 82.80418951 -71.29602441 81.47127272 -70.64672852 80.12939453 C-69.31339518 78.7960612 -67.98006185 77.46272786 -66.64672852 76.12939453 C-65.32029138 74.28512909 -64.04605351 72.41626936 -62.79516602 70.52001953 C-62.22668945 69.83166016 -62.22668945 69.83166016 -61.64672852 69.12939453 C-60.98672852 69.12939453 -60.32672852 69.12939453 -59.64672852 69.12939453 C-59.44047852 68.46939453 -59.23422852 67.80939453 -59.02172852 67.12939453 C-56.86665013 62.42740533 -53.73745287 58.19449726 -50.05297852 54.55517578 C-48.45065676 53.04905508 -48.45065676 53.04905508 -47.08422852 50.44189453 C-46.60985352 49.67876953 -46.13547852 48.91564453 -45.64672852 48.12939453 C-44.98672852 48.12939453 -44.32672852 48.12939453 -43.64672852 48.12939453 C-43.37860352 47.38689453 -43.11047852 46.64439453 -42.83422852 45.87939453 C-41.69396101 43.23877504 -40.55292546 41.27386609 -38.64672852 39.12939453 C-37.98672852 39.12939453 -37.32672852 39.12939453 -36.64672852 39.12939453 C-36.41985352 38.42814453 -36.19297852 37.72689453 -35.95922852 37.00439453 C-34.36529094 33.51291222 -32.12690073 31.04359688 -29.64672852 28.12939453 C-28.36820565 25.91352105 -28.36820565 25.91352105 -27.64672852 24.12939453 C-26.98672852 24.12939453 -26.32672852 24.12939453 -25.64672852 24.12939453 C-25.64672852 23.46939453 -25.64672852 22.80939453 -25.64672852 22.12939453 C-24.98672852 22.12939453 -24.32672852 22.12939453 -23.64672852 22.12939453 C-23.31672852 20.80939453 -22.98672852 19.48939453 -22.64672852 18.12939453 C-21.98672852 18.12939453 -21.32672852 18.12939453 -20.64672852 18.12939453 C-20.39922852 17.59314453 -20.15172852 17.05689453 -19.89672852 16.50439453 C-17.38232282 11.72702371 -14.44449227 7.92715828 -10.64672852 4.12939453 C-10.31672852 3.13939453 -9.98672852 2.14939453 -9.64672852 1.12939453 C-6.57870267 -0.40461839 -3.36592798 -0.00910096 0 0 Z M0.35327148 52.12939453 C0.08514648 52.76876953 -0.18297852 53.40814453 -0.45922852 54.06689453 C-1.64672852 56.12939453 -1.64672852 56.12939453 -4.64672852 57.12939453 C-5.98402837 58.70635354 -5.98402837 58.70635354 -7.20922852 60.75439453 C-7.72227539 61.55490234 -8.23532227 62.35541016 -8.76391602 63.18017578 C-9.38524414 64.15341797 -10.00657227 65.12666016 -10.64672852 66.12939453 C-12.36527197 68.74066069 -14.09971057 71.341222 -15.83422852 73.94189453 C-16.26227783 74.58787598 -16.69032715 75.23385742 -17.13134766 75.89941406 C-18.8273524 78.45123151 -20.51708334 80.96071013 -22.38500977 83.39111328 C-23.84311787 85.21631002 -23.84311787 85.21631002 -24.64672852 88.12939453 C-25.64672852 89.12939453 -26.64672852 90.12939453 -27.64672852 91.12939453 C-27.99735352 91.83064453 -28.34797852 92.53189453 -28.70922852 93.25439453 C-29.64672852 95.12939453 -29.64672852 95.12939453 -31.64672852 96.12939453 C-31.64672852 97.11939453 -31.64672852 98.10939453 -31.64672852 99.12939453 C-32.30672852 99.12939453 -32.96672852 99.12939453 -33.64672852 99.12939453 C-34.14172852 101.60439453 -34.14172852 101.60439453 -34.64672852 104.12939453 C-36.13172852 104.62439453 -36.13172852 104.62439453 -37.64672852 105.12939453 C-39.78339042 106.88160097 -39.78339042 106.88160097 -39.95922852 108.94189453 C-40.97042201 112.15932839 -43.26146716 113.80231028 -45.64672852 116.12939453 C-47.6512896 119.1839638 -47.94131614 121.49614715 -47.64672852 125.12939453 C-44.9333586 127.84276444 -36.98604031 126.35948842 -33.06420898 126.36962891 C-30.78795713 126.3793254 -28.5126116 126.41033082 -26.23657227 126.44189453 C-24.79256722 126.44842532 -23.34855571 126.45367549 -21.90454102 126.45751953 C-19.92671631 126.47153809 -19.92671631 126.47153809 -17.90893555 126.48583984 C-14.72879748 126.39033822 -14.72879748 126.39033822 -12.76391602 124.88354492 C-11.44355682 122.81038478 -10.96758273 121.15115348 -10.51391602 118.73486328 C-10.34794922 117.86756592 -10.18198242 117.00026855 -10.01098633 116.10668945 C-9.76880371 114.72574097 -9.76880371 114.72574097 -9.52172852 113.31689453 C-9.34996094 112.38014893 -9.17819336 111.44340332 -9.0012207 110.47827148 C-7.68783791 103.03853178 -6.90072048 95.68565544 -6.64672852 88.12939453 C-5.98672852 88.12939453 -5.32672852 88.12939453 -4.64672852 88.12939453 C-4.52555664 86.98599609 -4.40438477 85.84259766 -4.27954102 84.66455078 C-4.11075531 83.17361036 -3.94145805 81.6827278 -3.77172852 80.19189453 C-3.6930957 79.43714844 -3.61446289 78.68240234 -3.53344727 77.90478516 C-3.30789043 75.97020154 -2.98413878 74.04763435 -2.64672852 72.12939453 C-1.98672852 71.79939453 -1.32672852 71.46939453 -0.64672852 71.12939453 C-0.03699818 68.81308915 -0.03699818 68.81308915 0.35327148 66.12939453 C0.52987305 65.29279297 0.70647461 64.45619141 0.88842773 63.59423828 C1.06245117 62.76021484 1.23647461 61.92619141 1.41577148 61.06689453 C1.59237305 60.23029297 1.76897461 59.39369141 1.95092773 58.53173828 C2.46339089 55.87785263 2.46339089 55.87785263 2.35327148 52.12939453 C1.69327148 52.12939453 1.03327148 52.12939453 0.35327148 52.12939453 Z " fill="#FF363C" transform="translate(137.646728515625,87.87060546875)"/>
<path d="M0 0 C2.08001931 1.37266127 2.08001931 1.37266127 4.62109375 1.02734375 C7.35223549 0.06844759 9.04429458 -1.10578895 11.30078125 -2.91015625 C30.13289485 -16.48159027 52.79451725 -20.36617067 75.48828125 -16.84765625 C90.71125265 -14.08287151 103.50983149 -6.85204403 115.11328125 3.15234375 C115.82291016 2.60707031 115.82291016 2.60707031 116.546875 2.05078125 C118.72116973 0.39780865 120.91586103 -1.22557409 123.11328125 -2.84765625 C124.07234375 -3.58435547 124.07234375 -3.58435547 125.05078125 -4.3359375 C142.83717815 -17.22412744 164.92534634 -20.13506016 186.30859375 -17.3828125 C201.69520527 -14.66847289 215.08694179 -7.66595121 227.11328125 2.15234375 C230.72255859 0.85427032 233.45232773 -0.70759189 236.48828125 -3.03515625 C254.81622073 -16.11873749 277.18183327 -20.45318378 299.30395508 -17.078125 C320.75496897 -13.25948259 340.1508469 -0.3020233 353.11328125 17.15234375 C366.2513826 36.22003066 370.78290845 58.85454543 366.66210938 81.54223633 C363.97298415 94.58126437 358.83132347 107.9311908 350.11328125 118.15234375 C349.45328125 118.15234375 348.79328125 118.15234375 348.11328125 118.15234375 C348.11328125 118.81234375 348.11328125 119.47234375 348.11328125 120.15234375 C347.45328125 120.15234375 346.79328125 120.15234375 346.11328125 120.15234375 C345.86578125 120.77109375 345.61828125 121.38984375 345.36328125 122.02734375 C343.90699486 124.50303062 342.73515619 125.10359377 340.11328125 126.15234375 C340.11328125 126.81234375 340.11328125 127.47234375 340.11328125 128.15234375 C339.45328125 128.15234375 338.79328125 128.15234375 338.11328125 128.15234375 C338.11328125 128.81234375 338.11328125 129.47234375 338.11328125 130.15234375 C319.0067256 145.02394119 296.11047191 151.59809117 272.09765625 148.72265625 C258.46201888 146.73012767 246.23591262 141.20581636 235.11328125 133.15234375 C234.12328125 132.57484375 233.13328125 131.99734375 232.11328125 131.40234375 C230.11328125 130.15234375 230.11328125 130.15234375 229.11328125 128.15234375 C226.04169378 127.80865839 226.04169378 127.80865839 224.21875 129.9453125 C223.52394531 130.67363281 222.82914063 131.40195312 222.11328125 132.15234375 C211.5093797 140.23240373 197.4614516 146.69878532 184.11328125 148.15234375 C183.0459375 148.29542969 181.97859375 148.43851563 180.87890625 148.5859375 C160.37659432 150.71976181 141.24091296 145.46424977 124.11328125 134.15234375 C123.48421875 133.75789062 122.85515625 133.3634375 122.20703125 132.95703125 C118.25839371 130.44256866 118.25839371 130.44256866 117.11328125 128.15234375 C113.16241748 130.01051256 109.71449762 132.42591776 106.13671875 134.91015625 C104.11328125 136.15234375 104.11328125 136.15234375 102.11328125 136.15234375 C102.11328125 136.81234375 102.11328125 137.47234375 102.11328125 138.15234375 C80.31133505 148.62414468 56.47374927 153.4499233 33.01660156 145.43603516 C24.2611289 142.14211715 16.49852128 137.93458594 9.11328125 132.15234375 C7.78105126 131.15087431 6.4480562 130.15041871 5.11328125 129.15234375 C1.69545069 130.72856679 -1.2447812 132.74631963 -4.32421875 134.90234375 C-11.78551695 139.92226129 -19.89412739 144.71154182 -28.88671875 146.15234375 C-29.39550175 144.59268157 -29.89335344 143.02945134 -30.38671875 141.46484375 C-30.66515625 140.59472656 -30.94359375 139.72460938 -31.23046875 138.828125 C-31.8852268 136.15842698 -32.0050337 133.88837691 -31.88671875 131.15234375 C-31.07589844 130.80042969 -30.26507812 130.44851563 -29.4296875 130.0859375 C-21.7786564 126.67459301 -14.83297794 122.85742512 -7.88671875 118.15234375 C-8.5393292 114.52484671 -10.11522501 111.99867823 -12.07421875 108.90234375 C-14.9417563 104.07591224 -17.22121455 99.27956555 -19.19921875 94.02734375 C-19.44115967 93.39538086 -19.68310059 92.76341797 -19.93237305 92.11230469 C-27.38423926 71.61376259 -24.90147056 49.78585446 -16.44921875 30.02734375 C-14.3645015 25.7446818 -11.80259825 21.91587954 -8.92578125 18.125 C-7.71875339 16.22247423 -7.71875339 16.22247423 -7.9375 14.109375 C-11.20188678 7.37909609 -21.48048872 4.29792708 -28.13671875 1.77734375 C-28.79744385 1.52678223 -29.45816895 1.2762207 -30.13891602 1.01806641 C-44.75711575 -4.23943654 -64.43925329 -3.48118861 -78.83984375 2.74609375 C-93.6992555 9.87664225 -106.09343104 20.96734769 -112.88671875 36.15234375 C-117.95669894 35.49815276 -122.30662652 33.29770285 -126.88671875 31.15234375 C-125.60359751 26.8392778 -123.96567419 23.35650461 -121.51171875 19.58984375 C-120.63386719 18.22666016 -120.63386719 18.22666016 -119.73828125 16.8359375 C-117.89084817 14.1583288 -116.03495689 11.59673817 -113.88671875 9.15234375 C-113.22671875 9.15234375 -112.56671875 9.15234375 -111.88671875 9.15234375 C-111.61859375 8.51296875 -111.35046875 7.87359375 -111.07421875 7.21484375 C-109.88671875 5.15234375 -109.88671875 5.15234375 -106.88671875 4.15234375 C-106.55671875 3.16234375 -106.22671875 2.17234375 -105.88671875 1.15234375 C-75.02049359 -23.41378888 -31.06032033 -25.2123737 0 0 Z M15.11328125 13.15234375 C15.7658917 16.77984079 17.34178751 19.30600927 19.30078125 22.40234375 C30.47839177 41.2616866 34.42471157 63.17888871 29.15234375 84.61328125 C26.13067341 94.90513586 22.72636138 104.18031911 16.3359375 112.91796875 C14.96638019 115.0235484 14.96638019 115.0235484 15.04296875 117.171875 C16.69569867 120.23002854 19.30754708 121.78403325 22.17578125 123.58984375 C23.10003906 124.17862305 23.10003906 124.17862305 24.04296875 124.77929688 C39.21331332 133.97574824 58.41393939 136.79258829 75.61328125 132.65234375 C86.40499942 129.43657195 96.65723876 124.64421498 105.11328125 117.15234375 C104.37576652 113.42424731 102.68342824 111.10456983 100.44140625 108.05078125 C89.9805925 93.097971 86.92384684 71.70832521 89.43408203 53.87304688 C91.67870191 41.3817236 95.95473224 29.92093168 102.9765625 19.30859375 C104.42417509 16.96886167 104.42417509 16.96886167 104.11328125 13.15234375 C95.86852446 3.889117 79.80478852 -1.98080588 67.74951172 -3.05908203 C48.25991533 -4.11472121 29.98489503 -0.04132906 15.11328125 13.15234375 Z M128.11328125 11.15234375 C128.11328125 11.81234375 128.11328125 12.47234375 128.11328125 13.15234375 C127.45328125 13.15234375 126.79328125 13.15234375 126.11328125 13.15234375 C126.76288777 16.77158008 128.33298931 19.26001045 130.30078125 22.33984375 C134.78082952 29.87111831 137.55633032 37.79686682 140.11328125 46.15234375 C140.38269531 47.02375 140.65210938 47.89515625 140.9296875 48.79296875 C145.45112924 66.87873573 141.57744557 87.81879422 133.11328125 104.15234375 C131.23546998 107.08595252 129.31737797 109.95695772 127.2734375 112.77734375 C125.86584162 115.03825185 125.86584162 115.03825185 126.55859375 117.21875 C134.37019501 126.93418372 151.08769808 132.30145375 162.8828125 133.9375 C183.00323379 135.2756175 201.34160211 129.66412858 217.11328125 117.15234375 C216.57193925 113.72776719 215.84058236 111.36814978 213.86328125 108.52734375 C202.38179573 90.69299017 199.12491534 69.00053392 203.24755859 48.29101562 C205.95573242 36.48822822 210.98394191 25.93622433 218.11328125 16.15234375 C214.62512378 7.70446238 202.93316411 3.69991512 195.04296875 0.24609375 C172.90184781 -8.17258341 146.71811695 -3.04608349 128.11328125 11.15234375 Z M239.11328125 13.15234375 C239.69642118 17.03994326 240.86866077 19.77999572 242.86328125 23.15234375 C253.57316383 42.33767298 257.51499541 64.27433426 252.15234375 85.75 C248.88896082 96.43573884 244.57570803 105.95581333 238.11328125 115.15234375 C245.72065845 125.69268565 259.41366376 130.9649864 271.80078125 133.40234375 C283.12866985 135.03532509 294.27987183 135.14275639 305.11328125 131.15234375 C306.0878125 130.80042969 307.06234375 130.44851563 308.06640625 130.0859375 C323.50329071 124.08930162 335.81222575 114.6659955 344.05078125 100.21484375 C344.40414551 99.59552979 344.75750977 98.97621582 345.12158203 98.33813477 C350.63963361 88.0463208 352.84869827 78.1727127 352.73828125 66.52734375 C352.72917725 65.30329834 352.72007324 64.07925293 352.71069336 62.81811523 C352.23595551 43.98849983 345.60560294 29.86964747 332.67578125 16.27734375 C317.5742683 2.10674598 300.17391005 -3.36059479 279.7578125 -3.05859375 C263.9388294 -2.53291677 251.56959919 3.83766352 239.11328125 13.15234375 Z M3.11328125 26.15234375 C-3.69781977 34.82101778 -8.59535208 47.08041037 -8.88671875 58.15234375 C-8.93699219 59.23773438 -8.98726562 60.323125 -9.0390625 61.44140625 C-9.4481972 77.25037119 -6.31809563 90.7913312 2.11328125 104.15234375 C3.10328125 104.48234375 4.09328125 104.81234375 5.11328125 105.15234375 C16.19310992 83.94013019 19.93798397 66.04024221 13.36328125 42.46484375 C11.46065965 36.58531386 8.96664643 31.02960311 5.11328125 26.15234375 C4.45328125 26.15234375 3.79328125 26.15234375 3.11328125 26.15234375 Z M114.11328125 26.15234375 C104.10036178 45.79764419 99.5091961 64.86143141 105.83203125 86.46875 C108.07747835 92.9244104 111.33992992 98.49231676 115.11328125 104.15234375 C115.77328125 104.15234375 116.43328125 104.15234375 117.11328125 104.15234375 C121.45688361 96.00065164 125.23148724 88.27528109 127.11328125 79.15234375 C127.34015625 78.05921875 127.56703125 76.96609375 127.80078125 75.83984375 C129.16561675 59.73478481 127.11583289 40.63404379 117.11328125 27.15234375 C116.12328125 26.82234375 115.13328125 26.49234375 114.11328125 26.15234375 Z M227.11328125 27.15234375 C217.4726413 45.19705701 212.26968589 63.19659373 217.73828125 83.65234375 C219.98426767 90.39030301 222.94774733 96.80017235 226.11328125 103.15234375 C228.02838848 103.06084101 228.02838848 103.06084101 230.11328125 102.15234375 C240.25627781 87.3222412 242.023174 67.8530278 238.98828125 50.58984375 C237.14178512 42.13483515 233.92665909 34.37241051 229.11328125 27.15234375 C228.45328125 27.15234375 227.79328125 27.15234375 227.11328125 27.15234375 Z " fill="#FFFFFF" transform="translate(875.88671875,125.84765625)"/>
<path d="M0 0 C0.7425 0.78375 1.485 1.5675 2.25 2.375 C3.03503906 2.92542969 3.82007813 3.47585937 4.62890625 4.04296875 C7.95835362 7.00523414 9.53929801 10.08190765 11.4375 14.0625 C11.78554688 14.7836499 12.13359375 15.5047998 12.4921875 16.24780273 C19.6142441 31.38046755 17.75698485 46.48919362 14.25 62.375 C13.59 62.375 12.93 62.375 12.25 62.375 C12.14558594 63.23480469 12.04117188 64.09460938 11.93359375 64.98046875 C11.20122646 68.61719547 9.99295808 71.38821432 8.3125 74.6875 C7.78785156 75.73550781 7.26320313 76.78351563 6.72265625 77.86328125 C5.25 80.375 5.25 80.375 3.25 81.375 C2.28954319 83.09719842 1.32933582 84.81953705 0.37109375 86.54296875 C-2.62845034 91.44466276 -7.29798573 94.64495082 -11.8828125 97.9453125 C-13.74510098 99.29445297 -13.74510098 99.29445297 -15.13354492 100.82739258 C-17.97023889 103.54326678 -21.48521064 105.11784963 -24.9375 106.9375 C-25.66775391 107.33646484 -26.39800781 107.73542969 -27.15039062 108.14648438 C-31.98066899 110.70922728 -36.39086712 112.27470816 -41.75 113.375 C-42.73484375 113.57738281 -43.7196875 113.77976562 -44.734375 113.98828125 C-54.6471056 115.25947339 -65.09974137 115.01453067 -74.75 112.375 C-75.53117187 112.20355469 -76.31234375 112.03210938 -77.1171875 111.85546875 C-87.96334917 109.16991754 -98.51227883 102.76585495 -104.75 93.375 C-106.59371506 90.11304258 -108.18693716 86.77797815 -109.75 83.375 C-110.306875 82.385 -110.86375 81.395 -111.4375 80.375 C-116.89358901 67.90393941 -115.62597769 52.41686674 -112.75 39.375 C-111.80800508 37.67487549 -110.81068593 36.00371825 -109.75 34.375 C-109.11382213 32.783257 -108.50923808 31.17850855 -107.9375 29.5625 C-106.24117495 25.18845113 -104.11274656 21.81656849 -101.1796875 18.17578125 C-99.57796818 16.23310613 -99.57796818 16.23310613 -97.875 13.3125 C-94.99417455 9.33018247 -91.53355852 6.47806239 -87.75 3.375 C-87.11578125 2.8078125 -86.4815625 2.240625 -85.828125 1.65625 C-76.56719405 -6.24066786 -63.90865222 -12.36578474 -51.75 -13.625 C-50.91855469 -13.75519531 -50.08710938 -13.88539063 -49.23046875 -14.01953125 C-32.16787093 -16.29287884 -12.5978131 -12.02518523 0 0 Z M-68.75 20.375 C-68.75 21.035 -68.75 21.695 -68.75 22.375 C-69.41 22.375 -70.07 22.375 -70.75 22.375 C-70.75 23.035 -70.75 23.695 -70.75 24.375 C-71.41 24.375 -72.07 24.375 -72.75 24.375 C-73.018125 25.179375 -73.28625 25.98375 -73.5625 26.8125 C-73.954375 27.658125 -74.34625 28.50375 -74.75 29.375 C-75.74 29.705 -76.73 30.035 -77.75 30.375 C-79.1047729 32.55506032 -80.26147344 34.63880618 -81.375 36.9375 C-81.68767822 37.57792236 -82.00035645 38.21834473 -82.32250977 38.87817383 C-84.5642062 43.63462086 -85.66440576 47.15375143 -85.75 52.375 C-85.78609375 53.23609375 -85.8221875 54.0971875 -85.859375 54.984375 C-86.02327593 60.91758854 -85.75836595 66.73421909 -83.75 72.375 C-83.09 73.035 -82.43 73.695 -81.75 74.375 C-80.8528125 76.1075 -80.8528125 76.1075 -79.9375 77.875 C-78.41659669 80.635583 -77.91449122 81.28901596 -75 82.8125 C-73.88625 83.0909375 -73.88625 83.0909375 -72.75 83.375 C-72.75 84.035 -72.75 84.695 -72.75 85.375 C-62.71546063 90.39226969 -50.30359673 89.39031335 -39.75 86.375 C-39.75 85.715 -39.75 85.055 -39.75 84.375 C-39.09 84.33375 -38.43 84.2925 -37.75 84.25 C-29.42334936 81.82139356 -23.32150559 74.4389488 -18.75 67.375 C-18.75 66.385 -18.75 65.395 -18.75 64.375 C-18.09 64.375 -17.43 64.375 -16.75 64.375 C-16.46125 63.653125 -16.1725 62.93125 -15.875 62.1875 C-14.75 59.375 -14.75 59.375 -13.69921875 57.34375 C-12.28812329 52.93044733 -12.42143283 48.66735038 -12.4375 44.0625 C-12.42138672 43.15048828 -12.40527344 42.23847656 -12.38867188 41.29882812 C-12.38219826 32.26812866 -14.79982098 25.4441739 -20.625 18.4296875 C-26.58961161 12.66243437 -33.17571001 11.08026715 -41.3125 10.875 C-52.1534657 11.27121804 -59.83407695 14.4310513 -68.75 20.375 Z " fill="#FF363C" transform="translate(466.75,201.625)"/>
<path d="M0 0 C8.91 0 17.82 0 27 0 C25.875 12.375 25.875 12.375 25.02734375 17.10546875 C24.85009766 18.10771484 24.67285156 19.10996094 24.49023438 20.14257812 C24.21663086 21.64981445 24.21663086 21.64981445 23.9375 23.1875 C23.75123047 24.23486328 23.56496094 25.28222656 23.37304688 26.36132812 C22.91947338 28.90831773 22.46174232 31.45448099 22 34 C21.34 34 20.68 34 20 34 C20 38.62 20 43.24 20 48 C24.97063121 48.91297308 29.02936879 48.91297308 34 48 C34.33 47.01 34.66 46.02 35 45 C35.78375 44.236875 36.5675 43.47375 37.375 42.6875 C40.05674473 39.94190421 41.45923438 37.48699587 43 34 C43.66 34 44.32 34 45 34 C46.20628008 31.66785852 47.1654738 29.50357861 48 27 C48.66 27 49.32 27 50 27 C50.185625 26.0409375 50.185625 26.0409375 50.375 25.0625 C50.58125 24.381875 50.7875 23.70125 51 23 C51.99 22.505 51.99 22.505 53 22 C54.13350534 19.98330173 54.13350534 19.98330173 55 18 C55.66 18 56.32 18 57 18 C57.33 16.68 57.66 15.36 58 14 C58.66 14 59.32 14 60 14 C60.268125 13.236875 60.53625 12.47375 60.8125 11.6875 C61.9750973 9.05635874 62.97291463 7.94262348 65 6 C66.17574711 3.90010348 66.17574711 3.90010348 67 2 C67.66 2 68.32 2 69 2 C69 1.34 69 0.68 69 0 C79.23 0 89.46 0 100 0 C97.9958279 6.01251629 97.20806066 6.88757708 93 11 C91.37467541 13.36410849 89.84063695 15.7669909 88.33203125 18.20703125 C87.89246094 18.79871094 87.45289063 19.39039063 87 20 C86.34 20 85.68 20 85 20 C84.71125 20.598125 84.4225 21.19625 84.125 21.8125 C83 24 83 24 81 27 C80.34 27 79.68 27 79 27 C78.62875 28.051875 78.62875 28.051875 78.25 29.125 C76.82819762 32.39514548 75.12753712 35.141122 73 38 C72.34 38 71.68 38 71 38 C70.731875 38.5775 70.46375 39.155 70.1875 39.75 C68.97070811 42.05550043 67.69666121 44.02056192 66 46 C65.34 46 64.68 46 64 46 C63.773125 46.680625 63.54625 47.36125 63.3125 48.0625 C62.16215274 50.63708673 61.11307505 52.16575574 59.375 54.3125 C57.05995191 57.47685568 56.36395976 59.96113758 56.640625 63.98046875 C57.12345952 66.69378884 58.02015875 69.20075495 59.08203125 71.73828125 C60.17552207 74.4324565 61.04972705 77.16891162 61.9375 79.9375 C63.13684878 83.59047833 64.42876504 87.08301868 66.0625 90.5625 C68.00542712 94.74434705 69.14144041 98.98400559 70.28515625 103.44140625 C71.21573949 106.77218231 72.61803321 109.83299278 74 113 C75.07034871 116.31368232 76.04963053 119.65011613 77 123 C76 124 76 124 73.31616211 124.11352539 C72.14835205 124.10828857 70.98054199 124.10305176 69.77734375 124.09765625 C67.88725586 124.09282227 67.88725586 124.09282227 65.95898438 124.08789062 C64.61848891 124.07953403 63.27799412 124.07106907 61.9375 124.0625 C60.59310058 124.0574866 59.2486994 124.05292342 57.90429688 124.04882812 C54.60282059 124.03699488 51.30143197 124.02050971 48 124 C47.36321315 122.40888142 46.72651079 120.81772902 46.08984375 119.2265625 C45.735271 118.34049316 45.38069824 117.45442383 45.01538086 116.54150391 C42.33217807 109.82543248 40.04291679 103.06331576 37.91748047 96.15283203 C36.29232428 90.87815908 34.53823693 85.65761913 32.69921875 80.453125 C32 78 32 78 32 74 C26.34288706 72.86857741 19.51285727 71.79485709 14 74 C12.4523445 77.09531099 12.55590549 80.3666763 12.28125 83.78515625 C12 86 12 86 11 87 C10.50174052 89.58134429 10.04966418 92.15640593 9.625 94.75 C7.94052446 104.6607657 5.76327325 114.32854362 3 124 C-5.91 124 -14.82 124 -24 124 C-24 120.18671688 -23.80828826 117.60203627 -23 114 C-21.30320326 105.61328491 -19.65379657 97.21987602 -18.0625 88.8125 C-16.76229879 81.95149533 -15.43598781 75.09672277 -14.0625 68.25 C-13.90160889 67.44796143 -13.74071777 66.64592285 -13.57495117 65.81958008 C-12.84229195 62.17414497 -12.10709074 58.5292323 -11.36962891 54.88476562 C-10.70314539 51.5901662 -10.03906359 48.29508792 -9.375 45 C-9.16883057 43.98583008 -8.96266113 42.97166016 -8.75024414 41.92675781 C-7.52469351 35.83927632 -6.43114029 29.74510784 -5.45776367 23.61206055 C-5.0527435 21.30096143 -4.54421911 19.07719522 -3.9375 16.8125 C-3.04577875 13.18616694 -2.61072094 9.78902108 -2.34375 6.078125 C-2 4 -2 4 0 0 Z " fill="#FF363C" transform="translate(624,190)"/>
<path d="M0 0 C8.91 0 17.82 0 27 0 C27 10.06435644 27 10.06435644 25.625 15.3125 C24.30582809 20.61396083 23.31847879 25.88255967 22.47265625 31.27734375 C22.05318016 33.69366467 21.51670326 36.01012156 20.875 38.375 C20.05451108 41.77416837 19.9315994 44.53111255 20 48 C28.65103654 48.59900255 28.65103654 48.59900255 36.08984375 45.10546875 C37.53621228 42.79204641 38.75906964 40.42790723 40 38 C41.64783606 36.31471312 43.31002677 34.64302953 45 33 C46.29519995 30.83379456 46.29519995 30.83379456 47 29 C47.66 29 48.32 29 49 29 C49 28.01 49 27.02 49 26 C50.66666667 24.33333333 52.33333333 22.66666667 54 21 C54.33 20.175 54.66 19.35 55 18.5 C56.32217009 15.19457478 58.48220428 13.51779572 61 11 C62.62333063 8.63480328 64.15947321 6.23283093 65.66796875 3.79296875 C66.10753906 3.20128906 66.54710937 2.60960937 67 2 C67.66 2 68.32 2 69 2 C69 1.34 69 0.68 69 0 C79.89 0 90.78 0 102 0 C101.67 0.66 101.34 1.32 101 2 C100.34 2 99.68 2 99 2 C98.62875 2.804375 98.62875 2.804375 98.25 3.625 C96.69347463 6.5823982 94.96564327 9.29724051 93 12 C92.34 12 91.68 12 91 12 C90.79375 12.680625 90.5875 13.36125 90.375 14.0625 C88.80637043 17.41366318 86.80901238 19.72649246 84.33984375 22.44921875 C82.90910919 23.97649454 82.90910919 23.97649454 82 26 C81.34 26 80.68 26 80 26 C79.67 27.32 79.34 28.64 79 30 C78.34 30 77.68 30 77 30 C76.67 31.32 76.34 32.64 76 34 C75.34 34 74.68 34 74 34 C73.71125 34.5775 73.4225 35.155 73.125 35.75 C72.568125 36.86375 72.568125 36.86375 72 38 C71.731875 38.639375 71.46375 39.27875 71.1875 39.9375 C69.57011184 42.74664785 67.28270496 44.71729504 65 47 C65 47.66 65 48.32 65 49 C64.34 49 63.68 49 63 49 C62.7525 49.556875 62.505 50.11375 62.25 50.6875 C61 53 61 53 58.9375 55.4375 C56.83526584 58.21787422 56.34525999 59.57742271 56 63 C56.62568842 65.66482118 56.62568842 65.66482118 57.75 68.3125 C58.12125 69.26898438 58.4925 70.22546875 58.875 71.2109375 C59.24625 72.13132812 59.6175 73.05171875 60 74 C63 81.525 63 81.525 63 86 C63.66 86 64.32 86 65 86 C65.48108275 87.41601714 65.95978141 88.83284437 66.4375 90.25 C66.70433594 91.03890625 66.97117187 91.8278125 67.24609375 92.640625 C67.72455807 94.13799519 68.1610308 95.64995766 68.5390625 97.17578125 C69.0789738 99.31254887 69.99152784 101.04237757 71 103 C72.8183467 106.83873193 73.19732526 109.75750693 73 114 C73.66 114 74.32 114 75 114 C75.66666667 117.33333333 76.33333333 120.66666667 77 124 C67.43 124 57.86 124 48 124 C45.92075544 119.14842936 44.12998644 114.51745584 42.625 109.5 C41.14617067 104.64853149 39.61669258 99.82573906 37.96704102 95.02954102 C35.8057364 88.74071696 34.0361068 82.57231924 33 76 C32.34 76 31.68 76 31 76 C30.34 75.01 29.68 74.02 29 73 C25.65386488 72.41312216 25.65386488 72.41312216 21.875 72.3125 C20.59367187 72.24675781 19.31234375 72.18101562 17.9921875 72.11328125 C17.00476563 72.07589844 16.01734375 72.03851563 15 72 C15 72.66 15 73.32 15 74 C14.34 74 13.68 74 13 74 C12.90203125 74.804375 12.8040625 75.60875 12.703125 76.4375 C11.64269886 84.77464348 10.40194073 93.07812143 9.0625 101.375 C8.90491211 102.38433594 8.74732422 103.39367187 8.58496094 104.43359375 C7.47387599 111.19362161 6.0841832 117.8316336 3 124 C-0.74955875 124.19713345 -4.49965304 124.3810316 -8.25 124.5625 C-9.84521484 124.64661133 -9.84521484 124.64661133 -11.47265625 124.73242188 C-13.00986328 124.80493164 -13.00986328 124.80493164 -14.578125 124.87890625 C-15.99206543 124.94960327 -15.99206543 124.94960327 -17.43457031 125.02172852 C-19.82259456 125.00150258 -21.72674392 124.69460602 -24 124 C-23.33405637 119.9302178 -22.61278269 115.87573095 -21.84375 111.82421875 C-21.62589844 110.66599609 -21.40804687 109.50777344 -21.18359375 108.31445312 C-20.72999734 105.90780017 -20.27428796 103.50154445 -19.81640625 101.09570312 C-18.85614476 95.97336151 -17.9318415 90.8941677 -17.40625 85.70703125 C-17 82 -17 82 -16 81 C-15.712943 78.87668948 -15.55254209 76.7525389 -15.37890625 74.6171875 C-14.89921481 71.30385485 -13.93628257 68.21307303 -13 65 C-10.96177625 56.0318155 -9.51646012 47.07238891 -8.4296875 37.94921875 C-8 35 -8 35 -7 33 C-4.56300355 24.91093346 -3.22072573 16.66484055 -2.00244141 8.32446289 C-1.09588603 2.19177205 -1.09588603 2.19177205 0 0 Z " fill="#FF363C" transform="translate(251,190)"/>
<path d="M0 0 C0.68383255 0.02644089 1.3676651 0.05288177 2.07221985 0.0801239 C4.2534706 0.16780384 6.43304013 0.27697426 8.61328125 0.38671875 C10.09303897 0.44998669 11.57285736 0.51185246 13.05273438 0.57226562 C16.6779281 0.72332725 20.30192272 0.89367401 23.92578125 1.07421875 C25.23614095 4.13061698 26.18985778 6.83873259 26.5234375 10.1484375 C26.60215088 10.89416016 26.68086426 11.63988281 26.76196289 12.40820312 C26.83664795 13.18486328 26.91133301 13.96152344 26.98828125 14.76171875 C27.07134521 15.56029297 27.15440918 16.35886719 27.23999023 17.18164062 C27.76081357 22.22497221 28.24992287 27.2722917 28.6796875 32.32421875 C28.84595775 34.17982417 28.84595775 34.17982417 29.92578125 36.07421875 C30.42322739 39.04784538 30.87787004 42.01559718 31.30078125 45 C31.4301709 45.89857224 31.55956055 46.79714447 31.69287109 47.72294617 C31.96691985 49.63348791 32.2391655 51.54428902 32.50976562 53.45532227 C32.91881003 56.337597 33.33593341 59.21861766 33.75390625 62.09960938 C35.03401992 71.02698807 36.2266155 79.88411035 36.71484375 88.89526367 C36.69049986 91.05083148 36.69049986 91.05083148 37.92578125 92.07421875 C38.11351722 94.21679273 38.24999591 96.36392116 38.36328125 98.51171875 C38.68719923 103.66305948 39.25705198 108.49916376 40.5234375 113.5 C41.11957107 117.31409729 40.92578125 121.21381549 40.92578125 125.07421875 C32.01578125 125.07421875 23.10578125 125.07421875 13.92578125 125.07421875 C11.69094759 113.90005045 11.69094759 113.90005045 11.36328125 108.69921875 C11.14138794 105.26666508 10.7675853 102.44143494 9.92578125 99.07421875 C-3.93421875 99.07421875 -17.79421875 99.07421875 -32.07421875 99.07421875 C-32.73421875 101.38421875 -33.39421875 103.69421875 -34.07421875 106.07421875 C-35.06729696 107.41271546 -36.06778927 108.74573184 -37.07421875 110.07421875 C-38.19504373 112.70815745 -39.12764323 115.36971728 -40.07421875 118.07421875 C-40.73421875 118.07421875 -41.39421875 118.07421875 -42.07421875 118.07421875 C-42.17734375 118.85796875 -42.28046875 119.64171875 -42.38671875 120.44921875 C-43.07421875 123.07421875 -43.07421875 123.07421875 -46.07421875 125.07421875 C-48.89331055 125.30126953 -48.89331055 125.30126953 -52.2734375 125.26953125 C-53.48193359 125.26308594 -54.69042969 125.25664062 -55.93554688 125.25 C-57.82950195 125.22486328 -57.82950195 125.22486328 -59.76171875 125.19921875 C-61.03595703 125.19019531 -62.31019531 125.18117188 -63.62304688 125.171875 C-66.77362502 125.14827516 -69.92382858 125.11535069 -73.07421875 125.07421875 C-72.74421875 123.42421875 -72.41421875 121.77421875 -72.07421875 120.07421875 C-71.41421875 120.07421875 -70.75421875 120.07421875 -70.07421875 120.07421875 C-69.96851563 119.36007812 -69.8628125 118.6459375 -69.75390625 117.91015625 C-69.00222468 114.77382971 -67.80626535 112.48956335 -66.19921875 109.69921875 C-64.47347234 106.63714613 -62.81101535 103.65373622 -61.51171875 100.38671875 C-60.33198763 97.6682079 -59.11142089 95.47637611 -57.51171875 93.01171875 C-55.42188342 89.77464445 -54.27311233 86.74583033 -53.07421875 83.07421875 C-48.79866319 74.43644097 -48.79866319 74.43644097 -46.07421875 73.07421875 C-45.41649447 70.04487384 -45.41649447 70.04487384 -45.07421875 67.07421875 C-44.41421875 67.07421875 -43.75421875 67.07421875 -43.07421875 67.07421875 C-42.79449219 66.36007813 -42.51476562 65.6459375 -42.2265625 64.91015625 C-41.09926164 62.13584972 -39.887822 59.41968626 -38.63671875 56.69921875 C-36.72250235 52.51399414 -34.86428984 48.31386081 -33.07421875 44.07421875 C-32.41421875 44.07421875 -31.75421875 44.07421875 -31.07421875 44.07421875 C-30.82671875 43.04296875 -30.57921875 42.01171875 -30.32421875 40.94921875 C-29.25223167 37.13942295 -27.35389438 34.30988738 -25.07421875 31.07421875 C-24.57921875 29.58921875 -24.57921875 29.58921875 -24.07421875 28.07421875 C-23.41421875 28.07421875 -22.75421875 28.07421875 -22.07421875 28.07421875 C-22.07421875 26.75421875 -22.07421875 25.43421875 -22.07421875 24.07421875 C-21.41421875 24.07421875 -20.75421875 24.07421875 -20.07421875 24.07421875 C-19.99171875 23.41421875 -19.90921875 22.75421875 -19.82421875 22.07421875 C-18.82426025 18.07438475 -16.98717006 14.70521689 -15.07421875 11.07421875 C-14.40477383 9.74227817 -13.7373148 8.40933142 -13.07421875 7.07421875 C-12.41421875 7.07421875 -11.75421875 7.07421875 -11.07421875 7.07421875 C-10.97109375 6.47609375 -10.86796875 5.87796875 -10.76171875 5.26171875 C-8.95270586 -0.49423135 -5.5468812 -0.24904365 0 0 Z M1.92578125 28.07421875 C1.59578125 29.06421875 1.26578125 30.05421875 0.92578125 31.07421875 C-0.06421875 31.56921875 -0.06421875 31.56921875 -1.07421875 32.07421875 C-1.92980368 34.10764914 -1.92980368 34.10764914 -2.69921875 36.63671875 C-4.73922578 42.53264816 -7.40678404 47.96825258 -10.25634766 53.50219727 C-13.80171751 59.96302805 -13.80171751 59.96302805 -15.07421875 67.07421875 C-15.73421875 67.07421875 -16.39421875 67.07421875 -17.07421875 67.07421875 C-17.73421875 69.71421875 -18.39421875 72.35421875 -19.07421875 75.07421875 C-14.28166418 77.54938582 -9.71062812 77.40664833 -4.44921875 77.38671875 C-3.16144531 77.41088867 -3.16144531 77.41088867 -1.84765625 77.43554688 C-1.02265625 77.43619141 -0.19765625 77.43683594 0.65234375 77.4375 C1.77503662 77.44197144 1.77503662 77.44197144 2.92041016 77.4465332 C5.48740777 76.96994794 6.36824228 76.14023681 7.92578125 74.07421875 C8.36941886 70.95976388 8.36941886 70.95976388 8.23828125 67.38671875 C8.22990234 66.72897461 8.22152344 66.07123047 8.21289062 65.39355469 C8.08090044 59.81036968 7.42048078 54.33654284 6.64233398 48.81176758 C5.87056113 43.20095812 5.71022825 37.72649738 5.92578125 32.07421875 C5.26578125 32.07421875 4.60578125 32.07421875 3.92578125 32.07421875 C3.92578125 30.75421875 3.92578125 29.43421875 3.92578125 28.07421875 C3.26578125 28.07421875 2.60578125 28.07421875 1.92578125 28.07421875 Z " fill="#FF363C" transform="translate(784.07421875,188.92578125)"/>
<path d="M0 0 C-0.19335938 0.92039063 -0.38671875 1.84078125 -0.5859375 2.7890625 C-3.1224711 15.12013179 -5.02582885 27.43831933 -6 40 C-2.90279155 40.87840996 -1.09354597 40.99435406 2 40 C2 39.34 2 38.68 2 38 C2.78375 37.87625 3.5675 37.7525 4.375 37.625 C7.14057822 37.20882007 7.14057822 37.20882007 9 35 C9.66 35 10.32 35 11 35 C10.76639785 37.42548618 10.52603775 39.84984055 10.2734375 42.2734375 C10.11016143 43.90153317 9.96353401 45.53163578 9.8515625 47.1640625 C9.42458385 52.26747404 8.25431249 56.97543603 5 61 C2.58372624 62.25480311 0.73754663 62.57883898 -2 63 C-2 63.66 -2 64.32 -2 65 C-2.69867187 65.20753906 -3.39734375 65.41507812 -4.1171875 65.62890625 C-6.90099443 66.57129982 -9.42983366 67.57165464 -12 69 C-13.33042982 71.71870441 -13.62141655 73.10257465 -14 76 C-14.53602375 78.10561124 -15.07825806 80.20964637 -15.625 82.3125 C-16.65426755 86.37352098 -17.06858757 90.05389398 -17.03662109 94.22338867 C-17.03133392 95.11926193 -17.02604675 96.01513519 -17.02059937 96.93815613 C-17.01380157 97.61856461 -17.00700378 98.29897308 -17 99 C-16.44511902 99.00808685 -15.89023804 99.01617371 -15.31854248 99.02450562 C-9.54334593 99.11056256 -3.76849216 99.21006667 2.00634766 99.31738281 C4.16156253 99.35566602 6.31684116 99.39052004 8.47216797 99.421875 C11.57021876 99.4675395 14.66783091 99.52553212 17.765625 99.5859375 C18.72929993 99.59748871 19.69297485 99.60903992 20.68585205 99.62094116 C22.03679962 99.6507457 22.03679962 99.6507457 23.41503906 99.68115234 C24.20557678 99.69447601 24.9961145 99.70779968 25.81060791 99.7215271 C28.23447746 100.02982363 29.89107277 100.79371286 32 102 C31.50717265 107.01041143 30.89456753 111.97130167 30.0625 116.9375 C29.83240234 118.31228516 29.83240234 118.31228516 29.59765625 119.71484375 C29 122 29 122 27 124 C24.50037754 124.1877701 22.11255803 124.25194071 19.61279297 124.22705078 C18.85172241 124.22734283 18.09065186 124.22763489 17.30651855 124.22793579 C14.78495984 124.22653981 12.26369475 124.21096618 9.7421875 124.1953125 C7.99626833 124.19158332 6.25034706 124.1887359 4.50442505 124.18673706 C-0.0954972 124.17909311 -4.69529357 124.15943813 -9.29516602 124.1373291 C-13.9871246 124.11688704 -18.67910349 124.10773886 -23.37109375 124.09765625 C-32.58078454 124.07619292 -41.79038181 124.04204783 -51 124 C-50.87335908 121.45906605 -50.73798183 118.91909136 -50.59765625 116.37890625 C-50.56305298 115.66657837 -50.52844971 114.95425049 -50.49279785 114.22033691 C-50.1952997 109.00739184 -49.18662058 104.34486807 -47.6328125 99.3515625 C-46.76203675 96.11571682 -46.77812673 93.32809905 -47 90 C-49.31 90 -51.62 90 -54 90 C-54.36147116 81.68616324 -52.40779784 73.91133576 -50 66 C-49.34 66 -48.68 66 -48 66 C-47.505 65.01 -47.505 65.01 -47 64 C-45.66666667 63.66666667 -44.33333333 63.33333333 -43 63 C-42.67 62.34 -42.34 61.68 -42 61 C-41.525625 60.236875 -41.05125 59.47375 -40.5625 58.6875 C-38.41906513 54.45265538 -38.10207656 49.83326621 -37.46875 45.18359375 C-37.08981332 42.60998212 -36.61239697 40.19355125 -35.9375 37.6875 C-34.93985883 33.76344473 -34.43074232 30.02026167 -34 26 C-33.34 26 -32.68 26 -32 26 C-32.0309375 24.8553125 -32.061875 23.710625 -32.09375 22.53125 C-32.09375 18.05159621 -31.39952897 13.87608689 -30.5 9.5 C-30.35691406 8.77296875 -30.21382812 8.0459375 -30.06640625 7.296875 C-29.71766302 5.52990929 -29.35980277 3.76474691 -29 2 C-28.34 2 -27.68 2 -27 2 C-27 1.34 -27 0.68 -27 0 C-23.81310715 -0.19892707 -20.62548809 -0.38204784 -17.4375 -0.5625 C-16.54224609 -0.61857422 -15.64699219 -0.67464844 -14.72460938 -0.73242188 C-9.63581532 -1.01202594 -5.01473048 -0.92865379 0 0 Z " fill="#FF363C" transform="translate(552,190)"/>
<path d="M0 0 C0.93457031 0.00322266 1.86914062 0.00644531 2.83203125 0.00976562 C3.80011719 0.01814453 4.76820313 0.02652344 5.765625 0.03515625 C6.74917969 0.03966797 7.73273438 0.04417969 8.74609375 0.04882812 C11.16933291 0.06059142 13.59244773 0.07702941 16.015625 0.09765625 C16.510625 1.08765625 16.510625 1.08765625 17.015625 2.09765625 C16.025625 2.09765625 15.035625 2.09765625 14.015625 2.09765625 C13.809375 2.77828125 13.603125 3.45890625 13.390625 4.16015625 C10.6365259 10.04391341 5.6833478 14.66331959 1.015625 19.09765625 C-0.26054687 20.37769531 -0.26054687 20.37769531 -1.5625 21.68359375 C-5.46131542 24.90752231 -9.32865253 24.97896942 -14.234375 25.09765625 C-15.45640625 25.17306641 -15.45640625 25.17306641 -16.703125 25.25 C-19.0625 25.34765625 -19.0625 25.34765625 -22.984375 25.09765625 C-23.644375 24.10765625 -24.304375 23.11765625 -24.984375 22.09765625 C-24.324375 22.09765625 -23.664375 22.09765625 -22.984375 22.09765625 C-22.778125 21.43765625 -22.571875 20.77765625 -22.359375 20.09765625 C-20.77699279 16.64518597 -18.69207903 14.00536359 -16.3671875 11.0234375 C-14.83665983 9.05444307 -14.83665983 9.05444307 -13.859375 6.28515625 C-12.75214274 3.51707561 -11.53186289 2.59617854 -8.984375 1.09765625 C-5.93588503 0.14020156 -3.18579677 -0.01942559 0 0 Z " fill="#FF363C" transform="translate(447.984375,153.90234375)"/>
<path d="" fill="#FF363C" transform="translate(0,0)"/>
</svg>
